<mxfile host="65bd71144e">
    <diagram id="I6jmIUf0eBSmQkEJAopO" name="Page-1">
        <mxGraphModel dx="942" dy="897" grid="1" gridSize="10" guides="1" tooltips="1" connect="1" arrows="1" fold="1" page="1" pageScale="1" pageWidth="850" pageHeight="1100" math="0" shadow="0">
            <root>
                <mxCell id="0"/>
                <mxCell id="1" parent="0"/>
                <mxCell id="DlSnF9iUjvpGRlTJkNC2-6" style="edgeStyle=none;rounded=0;orthogonalLoop=1;jettySize=auto;html=1;entryX=0.308;entryY=0.05;entryDx=0;entryDy=0;entryPerimeter=0;fontSize=20;startArrow=blockThin;startFill=1;" parent="1" source="DlSnF9iUjvpGRlTJkNC2-1" target="DlSnF9iUjvpGRlTJkNC2-3" edge="1">
                    <mxGeometry relative="1" as="geometry"/>
                </mxCell>
                <mxCell id="DlSnF9iUjvpGRlTJkNC2-1" value="proxy" style="ellipse;whiteSpace=wrap;html=1;fontSize=20;" parent="1" vertex="1">
                    <mxGeometry x="130" y="280" width="120" height="80" as="geometry"/>
                </mxCell>
                <mxCell id="DlSnF9iUjvpGRlTJkNC2-4" style="rounded=0;orthogonalLoop=1;jettySize=auto;html=1;entryX=0;entryY=1;entryDx=0;entryDy=0;fontSize=20;startArrow=blockThin;startFill=1;" parent="1" source="DlSnF9iUjvpGRlTJkNC2-2" target="DlSnF9iUjvpGRlTJkNC2-1" edge="1">
                    <mxGeometry relative="1" as="geometry"/>
                </mxCell>
                <mxCell id="DlSnF9iUjvpGRlTJkNC2-2" value="cpu-node" style="ellipse;whiteSpace=wrap;html=1;fontSize=20;" parent="1" vertex="1">
                    <mxGeometry x="30" y="400" width="120" height="80" as="geometry"/>
                </mxCell>
                <mxCell id="DlSnF9iUjvpGRlTJkNC2-3" value="gpu-node" style="ellipse;whiteSpace=wrap;html=1;fontSize=20;" parent="1" vertex="1">
                    <mxGeometry x="220" y="400" width="120" height="80" as="geometry"/>
                </mxCell>
                <mxCell id="DlSnF9iUjvpGRlTJkNC2-8" style="edgeStyle=none;rounded=0;orthogonalLoop=1;jettySize=auto;html=1;entryX=0.5;entryY=0;entryDx=0;entryDy=0;fontSize=20;startArrow=blockThin;startFill=1;" parent="1" source="DlSnF9iUjvpGRlTJkNC2-7" target="DlSnF9iUjvpGRlTJkNC2-1" edge="1">
                    <mxGeometry relative="1" as="geometry"/>
                </mxCell>
                <mxCell id="DlSnF9iUjvpGRlTJkNC2-7" value="Internet" style="ellipse;shape=cloud;whiteSpace=wrap;html=1;fontSize=20;" parent="1" vertex="1">
                    <mxGeometry x="120" y="140" width="140" height="90" as="geometry"/>
                </mxCell>
                <mxCell id="DlSnF9iUjvpGRlTJkNC2-9" value="T4 GPU 0" style="shape=card;whiteSpace=wrap;html=1;fontSize=14;" parent="1" vertex="1">
                    <mxGeometry x="340" y="410" width="110" height="20" as="geometry"/>
                </mxCell>
                <mxCell id="DlSnF9iUjvpGRlTJkNC2-14" style="edgeStyle=none;rounded=0;orthogonalLoop=1;jettySize=auto;html=1;entryX=0.4;entryY=0.1;entryDx=0;entryDy=0;entryPerimeter=0;fontSize=20;startArrow=blockThin;startFill=1;" parent="1" source="DlSnF9iUjvpGRlTJkNC2-11" target="DlSnF9iUjvpGRlTJkNC2-7" edge="1">
                    <mxGeometry relative="1" as="geometry"/>
                </mxCell>
                <mxCell id="DlSnF9iUjvpGRlTJkNC2-11" value="Scientist" style="shape=umlActor;verticalLabelPosition=bottom;verticalAlign=top;html=1;outlineConnect=0;fontSize=20;" parent="1" vertex="1">
                    <mxGeometry x="100" y="10" width="30" height="60" as="geometry"/>
                </mxCell>
                <mxCell id="DlSnF9iUjvpGRlTJkNC2-13" style="edgeStyle=none;rounded=0;orthogonalLoop=1;jettySize=auto;html=1;entryX=0.88;entryY=0.25;entryDx=0;entryDy=0;entryPerimeter=0;fontSize=20;startArrow=blockThin;startFill=1;" parent="1" source="DlSnF9iUjvpGRlTJkNC2-12" target="DlSnF9iUjvpGRlTJkNC2-7" edge="1">
                    <mxGeometry relative="1" as="geometry"/>
                </mxCell>
                <mxCell id="DlSnF9iUjvpGRlTJkNC2-12" value="Admin" style="shape=umlActor;verticalLabelPosition=bottom;verticalAlign=top;html=1;outlineConnect=0;fontSize=20;" parent="1" vertex="1">
                    <mxGeometry x="260" y="30" width="30" height="60" as="geometry"/>
                </mxCell>
                <mxCell id="DlSnF9iUjvpGRlTJkNC2-15" value="&lt;i&gt;&lt;font style=&quot;font-size: 16px&quot;&gt;slurmctld&lt;br&gt;listen on&lt;br&gt;6817&lt;br&gt;&lt;/font&gt;&lt;/i&gt;" style="shape=process;whiteSpace=wrap;html=1;backgroundOutline=1;fontSize=20;" parent="1" vertex="1">
                    <mxGeometry x="10" y="280" width="120" height="80" as="geometry"/>
                </mxCell>
                <mxCell id="DlSnF9iUjvpGRlTJkNC2-17" value="&lt;i&gt;&lt;font style=&quot;font-size: 16px&quot;&gt;slurmd&lt;br&gt;listen on 6818&lt;br&gt;&lt;/font&gt;&lt;/i&gt;" style="shape=process;whiteSpace=wrap;html=1;backgroundOutline=1;fontSize=20;" parent="1" vertex="1">
                    <mxGeometry x="30" y="480" width="120" height="80" as="geometry"/>
                </mxCell>
                <mxCell id="DlSnF9iUjvpGRlTJkNC2-19" value="T4 GPU 1" style="shape=card;whiteSpace=wrap;html=1;fontSize=14;" parent="1" vertex="1">
                    <mxGeometry x="340" y="430" width="110" height="20" as="geometry"/>
                </mxCell>
                <mxCell id="DlSnF9iUjvpGRlTJkNC2-25" value="" style="group" parent="1" vertex="1" connectable="0">
                    <mxGeometry x="340" y="10" width="225" height="195" as="geometry"/>
                </mxCell>
                <mxCell id="DlSnF9iUjvpGRlTJkNC2-20" value="&lt;i&gt;&lt;font style=&quot;font-size: 16px&quot;&gt;daemon&lt;/font&gt;&lt;/i&gt;" style="shape=process;whiteSpace=wrap;html=1;backgroundOutline=1;fontSize=20;" parent="DlSnF9iUjvpGRlTJkNC2-25" vertex="1">
                    <mxGeometry x="87.5" y="20" width="120" height="30" as="geometry"/>
                </mxCell>
                <mxCell id="DlSnF9iUjvpGRlTJkNC2-21" value="Generic Resource(Gres)" style="shape=card;whiteSpace=wrap;html=1;fontSize=14;" parent="DlSnF9iUjvpGRlTJkNC2-25" vertex="1">
                    <mxGeometry x="17.5" y="65" width="190" height="20" as="geometry"/>
                </mxCell>
                <mxCell id="DlSnF9iUjvpGRlTJkNC2-22" value="hostname" style="ellipse;whiteSpace=wrap;html=1;fontSize=14;" parent="DlSnF9iUjvpGRlTJkNC2-25" vertex="1">
                    <mxGeometry x="107.5" y="95" width="100" height="60" as="geometry"/>
                </mxCell>
                <mxCell id="DlSnF9iUjvpGRlTJkNC2-23" value="" style="rounded=1;whiteSpace=wrap;html=1;fontSize=14;fillColor=none;" parent="DlSnF9iUjvpGRlTJkNC2-25" vertex="1">
                    <mxGeometry width="225" height="165" as="geometry"/>
                </mxCell>
                <mxCell id="DlSnF9iUjvpGRlTJkNC2-24" value="Legends" style="text;html=1;strokeColor=none;fillColor=none;align=center;verticalAlign=middle;whiteSpace=wrap;rounded=0;fontSize=14;" parent="DlSnF9iUjvpGRlTJkNC2-25" vertex="1">
                    <mxGeometry x="82.5" y="165" width="60" height="30" as="geometry"/>
                </mxCell>
                <mxCell id="2" value="&lt;i&gt;&lt;font style=&quot;font-size: 16px&quot;&gt;slurmd&lt;br&gt;listen on 6818&lt;br&gt;&lt;/font&gt;&lt;/i&gt;" style="shape=process;whiteSpace=wrap;html=1;backgroundOutline=1;fontSize=20;" vertex="1" parent="1">
                    <mxGeometry x="220" y="480" width="120" height="80" as="geometry"/>
                </mxCell>
                <mxCell id="3" value="&lt;i&gt;&lt;font style=&quot;font-size: 16px&quot;&gt;slurdbd&lt;br&gt;listen on&lt;br&gt;6819&lt;br&gt;&lt;/font&gt;&lt;/i&gt;" style="shape=process;whiteSpace=wrap;html=1;backgroundOutline=1;fontSize=20;" vertex="1" parent="1">
                    <mxGeometry x="250" y="280" width="120" height="80" as="geometry"/>
                </mxCell>
            </root>
        </mxGraphModel>
    </diagram>
</mxfile>